<svg width="50" height="50" viewBox="0 0 50 50" fill="none" xmlns="http://www.w3.org/2000/svg">
<path d="M25 50C38.8071 50 50 38.8071 50 25C50 11.1929 38.8071 0 25 0C11.1929 0 0 11.1929 0 25C0 38.8071 11.1929 50 25 50Z" fill="#2573C2"/>
<path d="M41.3148 18.4146C41.2812 17.8544 41.1168 17.3098 40.8348 16.8246C40.5848 16.3246 40.1397 15.9346 39.6197 15.7346C39.0895 15.4703 38.502 15.3415 37.9097 15.3596H15.7197L14.1297 20.1246H34.2347L31.0597 29.8646H10.9597L9.36973 34.6296H31.6647C32.3291 34.6103 32.9859 34.4837 33.6097 34.2546C34.2347 33.8996 34.9497 33.5396 35.5547 33.0396C36.1454 32.5739 36.6791 32.0402 37.1447 31.4496C37.5297 30.8708 37.8579 30.2563 38.1247 29.6146L41.0697 20.3546C41.3377 19.7453 41.4228 19.0713 41.3148 18.4146Z" fill="white"/>
<path d="M22.0548 22.7853H10.2248L8.63477 27.1903H20.5848L22.0548 22.7853Z" fill="white"/>
</svg>
